Coordinates
version=1
nRows=16
nColumns=40
inDegrees=yes

Units are S.I. units (second, meters, Newtons, ...)
Angles are in degrees.

endheader
time	pelvis_tilt	pelvis_list	pelvis_rotation	pelvis_tx	pelvis_ty	pelvis_tz	hip_flexion_r	hip_adduction_r	hip_rotation_r	knee_angle_r	knee_angle_r_beta	ankle_angle_r	subtalar_angle_r	mtp_angle_r	hip_flexion_l	hip_adduction_l	hip_rotation_l	knee_angle_l	knee_angle_l_beta	ankle_angle_l	subtalar_angle_l	mtp_angle_l	lumbar_extension	lumbar_bending	lumbar_rotation	arm_flex_r	arm_add_r	arm_rot_r	elbow_flex_r	pro_sup_r	wrist_flex_r	wrist_dev_r	arm_flex_l	arm_add_l	arm_rot_l	elbow_flex_l	pro_sup_l	wrist_flex_l	wrist_dev_l
      0.00000000	      0.63386556	     -4.98238693	     -2.57952745	     -0.79757191	      0.94639017	      1.00931000	     19.61464769	      2.10957365	    -18.45780847	    -23.47451548	     -0.40970759	     -1.62652878	     -7.55887744	      1.66937934	    -13.27040507	     10.84725159	     17.64004993	    -28.12331450	     -0.49084443	     -1.35230709	     -7.66592173	    -13.49290187	     -4.23550181	      4.52792934	     -4.88164820	     -3.04640931	     -9.60724103	    -30.36686617	     13.98192739	     89.95437384	      0.00000000	      0.00000000	      0.86203442	     10.14465847	      1.62011189	     17.73643196	     89.95437384	      0.00000000	      0.00000000
      0.01000000	      0.85412818	     -5.07264207	     -2.52642082	     -0.78814593	      0.94797273	      1.01349481	     18.60471343	      2.57747203	    -18.23105994	    -23.32860988	     -0.40716105	     -0.82224773	     -7.50686381	      1.50180953	    -12.68174464	     11.43671242	     17.12346042	    -30.21869123	     -0.52741566	     -3.48408557	     -6.44106327	    -12.84712466	     -4.24365824	      4.48091567	     -4.59847971	     -2.86053443	     -9.56681996	    -30.20611728	     13.65597714	     89.95437384	      0.00000000	      0.00000000	      0.00551256	     10.24532305	      1.29817980	     16.49612254	     89.95437384	      0.00000000	      0.00000000
      0.02000000	      0.88274745	     -5.25242021	     -2.43144569	     -0.77936786	      0.94932818	      1.01760370	     17.78008482	      3.15043199	    -18.05529038	    -22.99536205	     -0.40134478	     -0.28395262	     -7.49628157	      1.40304795	    -11.61043709	     12.17833940	     16.56398619	    -32.59357515	     -0.56886520	     -5.75495966	     -5.13180109	    -12.15862640	     -4.13076597	      4.54573184	     -4.32583696	     -2.68036637	     -9.51428951	    -30.16056853	     13.49801447	     89.95437384	      0.00000000	      0.00000000	     -0.81875651	     10.34924553	      0.94279923	     15.41096813	     89.95437384	      0.00000000	      0.00000000
      0.03000000	      0.50441778	     -5.62993799	     -2.26492169	     -0.77141351	      0.95004415	      1.02170559	     17.43404641	      3.95644867	    -17.91213129	    -22.54557843	     -0.39349458	     -0.32323549	     -8.01873729	      1.50073384	     -9.71104335	     13.25470763	     15.91017181	    -35.48519432	     -0.61933348	     -7.74325460	     -3.68554654	    -11.47180117	     -3.65042240	      4.85215109	     -4.07445086	     -2.51752121	     -9.43177313	    -30.52720447	     13.48386900	     89.95437384	      0.00000000	      0.00000000	     -1.68391648	     10.49240283	      0.30414043	     14.60991367	     89.95437384	      0.00000000	      0.00000000
      0.04000000	      0.65696984	     -5.31574213	     -2.34591529	     -0.76357870	      0.95155535	      1.02544849	     16.68813320	      3.88861545	    -17.70449355	    -22.49917850	     -0.39268474	      0.13010130	     -7.85241141	      1.40633811	     -8.60324865	     13.26458852	     15.24792755	    -37.69172875	     -0.65784477	     -9.61592586	     -2.80731283	    -10.86945054	     -3.83360114	      4.38251967	     -3.58821452	     -2.29143057	     -9.31925125	    -30.32078716	     13.61105606	     89.95437384	      0.00000000	      0.00000000	     -2.46772091	     10.66960031	      0.10308417	     14.01648731	     89.95437384	      0.00000000	      0.00000000
      0.05000000	     -0.43655662	     -5.53956683	     -1.98271201	     -0.75671194	      0.95096003	      1.02863220	     17.34374284	      4.35604811	    -17.89482258	    -22.37021289	     -0.39043387	      0.36696930	     -8.26368762	      1.47656611	     -5.39415020	     14.01386695	     13.91996350	    -40.88957292	     -0.71365768	    -10.44727069	     -0.10980172	    -10.23660074	     -2.57019288	      4.60618962	     -3.50548122	     -2.09548854	     -9.27983751	    -30.73833017	     13.47234694	     89.95437384	      0.00000000	      0.00000000	     -3.15237321	     10.81432426	     -1.09503937	     13.02361909	     89.95437384	      0.00000000	      0.00000000
      0.06000000	     -0.74039274	     -5.60499770	     -1.66476610	     -0.74941919	      0.95163967	      1.03152136	     16.97834296	      4.58756981	    -18.17952964	    -22.03367428	     -0.38456016	      0.72675293	     -7.95137356	      1.41818110	     -3.33141965	     14.46816399	     13.06138617	    -43.52893310	     -0.75972320	     -9.86833752	      2.13331057	     -9.99055878	     -2.24072301	      4.62305190	     -3.36776034	     -1.88958561	     -9.25578405	    -30.68106531	     13.64900566	     89.95437384	      0.00000000	      0.00000000	     -3.89322679	     10.92353109	     -1.45430741	     12.52134394	     89.95437384	      0.00000000	      0.00000000
      0.07000000	     -0.87313398	     -5.67757877	     -1.36969622	     -0.74217848	      0.95255828	      1.03439601	     16.38209376	      4.85292340	    -18.41060308	    -21.64037518	     -0.37769580	      1.26942922	     -7.65378380	      1.29068740	     -1.50326528	     14.93245009	     12.60835896	    -45.87666963	     -0.80069893	     -8.72970701	      4.34092703	     -9.89300551	     -2.12991193	      4.63930875	     -3.14029678	     -1.60849128	     -9.23455378	    -30.69918980	     13.76714638	     89.95437384	      0.00000000	      0.00000000	     -4.42838489	     11.01785476	     -1.77430683	     11.77599180	     89.95437384	      0.00000000	      0.00000000
      0.08000000	     -1.54249091	     -5.51486971	     -0.96893918	     -0.73562310	      0.95245074	      1.03665969	     16.56731051	      4.70678197	    -19.04512949	    -21.51856475	     -0.37556981	      1.52170402	     -7.40950815	      1.18875115	      1.20046184	     15.02616774	     11.97544164	    -48.38663323	     -0.84450606	     -7.19356939	      7.42899207	     -9.34982330	     -1.43902745	      4.41992657	     -3.06300802	     -1.42360525	     -9.18096505	    -30.74022439	     14.08158494	     89.95437384	      0.00000000	      0.00000000	     -5.12503344	     11.16593902	     -2.26676372	     11.45126897	     89.95437384	      0.00000000	      0.00000000
      0.09000000	     -1.67125686	     -5.52631189	     -0.59328296	     -0.72861844	      0.95329994	      1.03905223	     15.95099655	      4.87889702	    -19.39573919	    -21.04308193	     -0.36727106	      1.89796114	     -7.15815931	      1.07645693	      3.06296300	     15.28845405	     11.68003135	    -50.35590746	     -0.87887638	     -5.40278279	     10.14595716	     -8.73102129	     -1.34379838	      4.37757630	     -2.86451845	     -1.18210563	     -9.18236934	    -30.65221727	     14.37190802	     89.95437384	      0.00000000	      0.00000000	     -5.64878388	     11.28373227	     -2.61350173	     10.98894083	     89.95437384	      0.00000000	      0.00000000
      0.10000000	     -1.81376049	     -5.35317126	     -0.25527195	     -0.72184856	      0.95413331	      1.04122300	     15.39394605	      4.81225020	    -19.82164387	    -20.64543769	     -0.36033086	      2.28564242	     -6.76188592	      0.37319016	      4.99215893	     15.20423431	     11.27190321	    -52.25855664	     -0.91208388	     -1.65107019	     11.97253832	      1.72191831	     -1.27027442	      4.13733573	     -2.55020742	     -0.97623472	     -9.19173464	    -30.44269625	     14.71792119	     89.95437384	      0.00000000	      0.00000000	     -6.08553786	     11.41860712	     -3.02519166	     10.66097435	     89.95437384	      0.00000000	      0.00000000
      0.11000000	     -1.70940228	     -5.33799291	      0.02035961	     -0.71483871	      0.95534604	      1.04367282	     14.43568251	      5.04505132	    -19.97671626	    -19.97992415	     -0.34871546	      2.66399014	     -6.56394008	      0.31792892	      6.40712262	     15.39112276	     11.21885088	    -53.50390989	     -0.93381939	     -0.11595600	     13.93642777	      1.63335633	     -1.49014977	      4.05431794	     -2.19018880	     -0.65412625	     -9.18345776	    -30.47011628	     15.03164245	     89.95437384	      0.00000000	      0.00000000	     -6.50323815	     11.53455029	     -2.96690389	     10.39920110	     89.95437384	      0.00000000	      0.00000000
      0.12000000	     -1.66689859	     -5.21492788	      0.30306825	     -0.70812970	      0.95645622	      1.04587596	     13.60818843	      5.13850854	    -20.17834559	    -19.39899263	     -0.33857629	      2.97415862	     -6.38579972	      0.27717576	      7.88098068	     15.36220676	     11.05673627	    -54.50753289	     -0.95133592	      1.23984057	     15.41746336	      1.60672748	     -1.65157808	      3.84867913	     -1.78866350	     -0.35292038	     -9.21914263	    -30.28357388	     15.34578719	     89.95437384	      0.00000000	      0.00000000	     -6.77164422	     11.66186469	     -3.06283462	     10.07785299	     89.95437384	      0.00000000	      0.00000000
      0.13000000	     -1.64308947	     -4.87237064	      0.35843101	     -0.70139345	      0.95759311	      1.04832343	     12.89968730	      4.96621444	    -20.56919187	    -18.99192262	     -0.33147158	      3.24819393	     -6.37932264	      0.25263696	      9.16327909	     15.18615220	     11.36076412	    -55.06959441	     -0.96114574	      1.86565450	     15.84764354	      1.55604036	     -1.80417099	      3.40046998	     -1.18142648	     -0.01792062	     -9.24658319	    -30.08635860	     15.61013896	     89.95437384	      0.00000000	      0.00000000	     -7.13847451	     11.83767799	     -3.05232439	     10.03037282	     89.95437384	      0.00000000	      0.00000000
      0.14000000	     -2.02390731	     -4.63002499	      0.74492684	     -0.69535918	      0.95795042	      1.04980687	     12.67804949	      4.77683288	    -20.97006296	    -18.60818476	     -0.32477409	      3.49640736	     -5.63117590	     -0.37651966	     11.22042582	     14.59231247	     10.53020871	    -55.89017112	     -0.97546751	      5.65380998	     16.78163939	     11.55080479	     -1.52382590	      3.10855693	     -1.05955051	      0.16983559	     -9.39650442	    -28.82893241	     16.23820584	     89.95437384	      0.00000000	      0.00000000	     -7.48835076	     11.93912109	     -2.93404464	      9.98928088	     89.95437384	      0.00000000	      0.00000000
      0.15000000	     -2.06766106	     -4.29202475	      0.78772634	     -0.68893907	      0.95898552	      1.05194010	     12.03201673	      4.62936972	    -21.05166974	    -18.11580788	     -0.31618049	      3.68715213	     -5.44726953	     -0.41265330	     12.48051269	     14.19644227	     10.63254812	    -55.94620964	     -0.97644556	      6.50890530	     17.10205124	     11.32282733	     -1.63067224	      2.68152256	     -0.48592896	      0.56126536	     -9.46815147	    -28.56812720	     16.54497954	     89.95437384	      0.00000000	      0.00000000	     -7.82261093	     12.12177459	     -2.87817582	     10.10286193	     89.95437384	      0.00000000	      0.00000000
